<svg width="16" height="17" viewBox="0 0 16 17" fill="none" xmlns="http://www.w3.org/2000/svg">
<path d="M13.3 14.5C11.8667 14.5 10.4696 14.1804 9.10867 13.5413C7.74778 12.9022 6.54222 12.0578 5.492 11.008C4.44178 9.95822 3.59733 8.75267 2.95867 7.39133C2.32 6.03 2.00044 4.63289 2 3.2C2 3 2.06667 2.83333 2.2 2.7C2.33333 2.56667 2.5 2.5 2.7 2.5H5.4C5.55556 2.5 5.69444 2.55 5.81667 2.65C5.93889 2.75 6.01111 2.87778 6.03333 3.03333L6.46667 5.36667C6.48889 5.52222 6.486 5.664 6.458 5.792C6.43 5.92 6.36622 6.03378 6.26667 6.13333L4.66667 7.76667C5.13333 8.56667 5.71667 9.31667 6.41667 10.0167C7.11667 10.7167 7.88889 11.3222 8.73333 11.8333L10.3 10.2667C10.4 10.1667 10.5307 10.0918 10.692 10.042C10.8533 9.99222 11.0116 9.97822 11.1667 10L13.4667 10.4667C13.6222 10.5 13.75 10.5751 13.85 10.692C13.95 10.8089 14 10.9449 14 11.1V13.8C14 14 13.9333 14.1667 13.8 14.3C13.6667 14.4333 13.5 14.5 13.3 14.5Z" fill="#F4F4F4"/>
</svg>
