<svg width="16" height="17" viewBox="0 0 16 17" fill="none" xmlns="http://www.w3.org/2000/svg">
<path d="M7.99967 13.8333C10.933 13.8333 13.333 11.4333 13.333 8.5C13.333 5.56667 10.933 3.16667 7.99967 3.16667C5.06634 3.16667 2.66634 5.56667 2.66634 8.5C2.66634 11.4333 5.06634 13.8333 7.99967 13.8333ZM7.99967 1.83334C11.6663 1.83334 14.6663 4.83334 14.6663 8.5C14.6663 12.1667 11.6663 15.1667 7.99967 15.1667C4.33301 15.1667 1.33301 12.1667 1.33301 8.5C1.33301 4.83334 4.33301 1.83334 7.99967 1.83334ZM8.33301 9.16667H7.33301L4.66634 7.63334L5.19967 6.76667L7.39967 8.03334V5.16667H8.39967V9.16667H8.33301Z" fill="#F4F4F4"/>
</svg>
