<svg width="24" height="25" viewBox="0 0 24 25" fill="none" xmlns="http://www.w3.org/2000/svg">
<path d="M19.95 21.5C17.8 21.5 15.7043 21.0207 13.663 20.062C11.6217 19.1033 9.81333 17.8367 8.238 16.262C6.66267 14.6873 5.396 12.879 4.438 10.837C3.48 8.795 3.00067 6.69933 3 4.55C3 4.25 3.1 4 3.3 3.8C3.5 3.6 3.75 3.5 4.05 3.5H8.1C8.33333 3.5 8.54167 3.575 8.725 3.725C8.90833 3.875 9.01667 4.06667 9.05 4.3L9.7 7.8C9.73333 8.03333 9.729 8.246 9.687 8.438C9.645 8.63 9.54933 8.80067 9.4 8.95L7 11.4C7.7 12.6 8.575 13.725 9.625 14.775C10.675 15.825 11.8333 16.7333 13.1 17.5L15.45 15.15C15.6 15 15.796 14.8877 16.038 14.813C16.28 14.7383 16.5173 14.7173 16.75 14.75L20.2 15.45C20.4333 15.5 20.625 15.6127 20.775 15.788C20.925 15.9633 21 16.1673 21 16.4V20.45C21 20.75 20.9 21 20.7 21.2C20.5 21.4 20.25 21.5 19.95 21.5Z" fill="#E1A25B"/>
</svg>
